<svg width="419" height="223" viewBox="0 0 419 223" fill="none" xmlns="http://www.w3.org/2000/svg">
<path d="M121.644 127.65L117.228 126.546C130.727 151.426 142.805 177.067 157.562 201.249C159.632 207.069 152.643 206.456 148.914 205.124C149.163 209.781 152.129 213.571 153.534 217.823C153.929 219.02 154.973 221.395 154.101 222.483C149.553 225.107 140.724 217.042 137.467 213.996C120.138 197.791 93.8355 163.604 82.7117 142.66C82.1683 141.641 81.7867 140.635 81.8503 139.46C80.6125 139.184 80.3634 139.866 79.661 140.582C75.7411 144.571 69.7962 154.6 66.3665 159.732C60.0585 169.18 54.0155 178.96 48.1024 188.662C45.786 192.465 38.5715 207.252 35.8442 208.845C33.7769 210.052 31.4763 209.827 30.2333 207.749C27.9274 203.89 32.5445 190.488 31.0099 185.204C30.4904 184.62 20.2995 190.459 18.9981 191.244C16.0668 193.012 5.31402 201.318 3.3209 201.448C0.577709 201.623 0.0688279 198.879 0.00256736 196.642C-0.180312 190.483 9.45663 176.261 13.0241 170.51C27.18 147.679 43.6444 125.373 60.8881 104.872C59.4463 100.018 42.7592 69.1378 44.2832 67.1607L47.6439 68.5911C48.5689 68.9441 49.0672 68.4053 48.6908 67.5402C48.3145 66.675 44.4237 62.6756 43.1568 60.534C41.5745 57.8589 32.9924 40.8503 34.2725 39.1015C37.8877 38.4247 43.7664 38.0293 47.5114 38.4725C52.0489 39.0086 55.4229 41.9544 59.7405 42.8142C59.8968 40.4841 60.3129 38.3557 63.0243 38.3451C64.8293 38.3372 74.7418 41.0202 76.4752 41.9252C83.2683 45.476 86.1917 63.1507 92.1551 68.6335C92.1684 66.2398 106.234 53.8303 106.897 54.6185L106.152 57.1875L107.626 57.5617C107.718 56.93 107.917 56.2082 108.357 55.7411C121.066 42.2065 131.739 29.9589 146.34 17.7459C149.145 15.3999 164.093 3.15236 166.176 3.07009C167.931 3.00109 170.751 4.27494 172.858 4.43417C183.062 5.20644 191.167 1.07174 200.184 0.0685793C205.72 -0.547115 206.706 3.13113 211.178 5.16929C212.996 8.09914 209.412 10.7716 207.456 12.5417C198.715 20.4502 186.142 27.8757 176.563 35.4657C151.776 55.1095 129.73 76.8446 109.454 101.122L109.415 103.309L121.636 127.647L121.644 127.65ZM186.211 173.304C220.441 176.444 243.282 161.431 247.629 126.541C253.081 82.7839 233.213 51.5454 186.333 56.3117C126.6 62.3837 126.409 167.821 186.211 173.307V173.304ZM203.285 149.276C160.645 162.139 158.89 83.2775 189.977 78.405C229.047 72.2826 229.635 141.328 203.285 149.276ZM260.165 145.733C260.165 146.954 261.676 152.461 262.169 154.056C270.494 181.016 306.773 178.339 319.479 156.447L322.795 171.189H343.426L343.479 111.177L335.313 109.585C335.316 108.839 337.547 109.614 338.663 108.505C339.045 108.126 342.689 99.0573 342.689 98.5186V81.9187C334.369 79.2702 325.448 79.6152 316.9 81.181V142.785C316.9 148.674 292.625 154.581 287.796 143.154C284.247 134.749 288.133 114.996 286.736 105.246L283.168 102.866C284.255 96.1036 286.357 89.3097 285.848 82.3885C283.699 78.7686 261.011 80.1778 260.163 81.181V145.736L260.165 145.733ZM364.794 144.996C364.794 147.174 366.082 153.955 366.781 156.285C373.116 177.365 402.777 175.99 419 168.241L414.15 149.048C408.433 151.85 394.415 153.299 391.884 145.906C388.027 134.632 391.947 115.79 391.369 103.715L389.103 103.306C388.862 103.112 390.047 101.839 390.211 101.839H417.842C417.439 100.896 418.579 99.6518 418.579 99.2564V81.5499C417.932 80.4963 417.11 80.5308 416.037 80.406C410.405 79.7452 401.316 80.2787 395.337 80.406C393.418 80.4459 390.815 82.2133 390.556 79.3472C390.455 78.2352 391.303 76.4651 391.351 74.9391C391.523 69.4085 391.155 63.8301 391.322 58.3047L367.736 59.0425L366.683 80.491L353.723 83.0068C352.281 84.1214 351.539 100.525 352.957 101.515L364.794 102.574V144.996Z" fill="url(#paint0_linear_133057_2770)"/>
<defs>
<linearGradient id="paint0_linear_133057_2770" x1="0.00256736" y1="111.501" x2="419" y2="111.501" gradientUnits="userSpaceOnUse">
<stop stop-color="#8400FF"/>
<stop offset="0.09" stop-color="#7F07FF"/>
<stop offset="0.23" stop-color="#731CFF"/>
<stop offset="0.41" stop-color="#5F3EFF"/>
<stop offset="0.6" stop-color="#446EFF"/>
<stop offset="0.81" stop-color="#21AAFF"/>
<stop offset="1" stop-color="#00E5FF"/>
</linearGradient>
</defs>
</svg>
